<svg t="1721373784076" class="icon" viewBox="0 0 1194 1024" version="1.1" xmlns="http://www.w3.org/2000/svg" p-id="33087" width="200" height="200"><path d="M49.501 134.393h1095.602v709.931A179.676 179.676 0 0 1 965.427 1024h-736.25A179.676 179.676 0 0 1 49.501 844.324V134.393z" fill="#bae0f5" p-id="33088" data-spm-anchor-id="a313x.search_index.0.i11.18633a81NOVKoJ" class="selected"></path><path d="M1023.59 649.566L853.283 276.252a34.532 34.532 0 0 0-60.59-4.106L569.939 624.218l-0.224 0.336a6.346 6.346 0 0 1-4.218 2.539 6.234 6.234 0 0 1-4.779-1.195L382.535 494.417a34.494 34.494 0 0 0-44.275 2.725L182.924 644.638a53.347 53.347 0 0 0 35.54 91.948 52.637 52.637 0 0 0 38.077-14.709l109.307-103.93a3.248 3.248 0 0 1 4.218-0.262l195.28 144.211c0.635 0.448 1.307 0.934 1.98 1.344a34.345 34.345 0 0 0 18.44 5.376 33.113 33.113 0 0 0 7.467-0.859 34.27 34.27 0 0 0 21.615-15.23L808.113 446.93a3.024 3.024 0 0 1 1.418-1.232 3.21 3.21 0 0 1 2.501 0 3.36 3.36 0 0 1 1.83 1.718l112.33 246.387a53.533 53.533 0 0 0 70.93 26.43 53.31 53.31 0 0 0 26.467-70.668zM67.197 0h1060.21q67.197 0 67.197 67.197 0 67.196-67.196 67.196H67.197Q0 134.393 0 67.196 0 0 67.197 0z" fill="#1890FF" p-id="33089"></path></svg>